<svg width="726" height="391" viewBox="0 0 726 391" fill="none" xmlns="http://www.w3.org/2000/svg">
<g filter="url(#filter0_d_1_354)">
<path d="M36 62C36 46.9151 36 39.3726 40.6863 34.6863C45.3726 30 52.9151 30 68 30H658C673.085 30 680.627 30 685.314 34.6863C690 39.3726 690 46.9151 690 62V317C690 332.085 690 339.627 685.314 344.314C680.627 349 673.085 349 658 349H68C52.9151 349 45.3726 349 40.6863 344.314C36 339.627 36 332.085 36 317V62Z" fill="white"/>
</g>
<defs>
<filter id="filter0_d_1_354" x="0" y="0" width="726" height="391" filterUnits="userSpaceOnUse" color-interpolation-filters="sRGB">
<feFlood flood-opacity="0" result="BackgroundImageFix"/>
<feColorMatrix in="SourceAlpha" type="matrix" values="0 0 0 0 0 0 0 0 0 0 0 0 0 0 0 0 0 0 127 0" result="hardAlpha"/>
<feOffset dy="6"/>
<feGaussianBlur stdDeviation="18"/>
<feColorMatrix type="matrix" values="0 0 0 0 0 0 0 0 0 0 0 0 0 0 0 0 0 0 0.1 0"/>
<feBlend mode="normal" in2="BackgroundImageFix" result="effect1_dropShadow_1_354"/>
<feBlend mode="normal" in="SourceGraphic" in2="effect1_dropShadow_1_354" result="shape"/>
</filter>
</defs>
</svg>
